<svg width="53" height="52" viewBox="0 0 53 52" fill="none" xmlns="http://www.w3.org/2000/svg">
<path d="M0.0414949 47.3157C1.05692 44.1978 2.61912 41.2356 3.94711 38.2735C4.10333 37.8837 4.72821 37.8837 4.96253 38.1176C6.29027 39.5207 7.77436 40.9238 8.63369 42.6387H8.7118C18.2412 43.3402 27.4581 35.2333 34.0193 29.3092C41.596 22.5276 48.4696 14.2649 51.2035 4.3652C51.3597 3.118 51.5159 1.79285 51.5159 0.4677C51.5159 -0.1559 52.3751 -0.1559 52.4532 0.4677C52.4532 0.70155 52.4532 0.9354 52.4532 1.16925C52.7657 1.16925 53 1.4031 53 1.79285C52.9219 2.6503 52.6876 3.50775 52.5313 4.3652C51.9065 25.4897 30.8168 45.8346 10.1959 47.1598C10.8989 48.407 11.5236 49.732 12.3047 50.9793C12.6954 51.5248 12.0704 52.0705 11.5236 51.9925C7.61814 51.447 4.1032 49.5761 0.510153 48.1731C0.197842 48.0952 -0.114597 47.7834 0.0414949 47.3157ZM10.5083 50.4337C10.0395 49.4203 9.72723 48.407 9.18046 47.3936C9.02411 47.0037 9.25857 46.6921 9.4929 46.6141C9.4929 46.3803 9.64912 46.2242 9.88345 46.1464C28.5517 43.0284 43.7049 30.3226 49.3288 13.0955C45.6577 19.8771 40.0338 25.8013 34.488 30.7901C30.4263 34.4539 26.1303 37.7277 21.4437 40.4559C17.7725 42.5606 13.1641 44.5093 8.94613 43.1843C9.18046 43.8079 8.24314 44.1197 7.93071 43.652C6.91528 42.3269 5.89985 41.0797 4.80632 39.9104C3.71291 42.3269 2.54113 44.7432 1.68205 47.2376C4.57199 48.329 7.46204 49.7321 10.5083 50.4337Z" fill="#E86776"/>
</svg>
