<svg width="23" height="23" viewBox="0 0 23 23" fill="none" xmlns="http://www.w3.org/2000/svg">
<g id="Vector">
<path d="M22.283 8.80102C21.7807 8.17204 21.0953 7.82469 20.3536 7.82469H18.6589C18.4993 3.47816 15.3494 0 11.5 0C7.65062 0 4.5007 3.47816 4.34109 7.82469H2.64643C1.90472 7.82469 1.21934 8.17204 0.717046 8.80102C0.0833065 9.58959 -0.146717 10.688 0.0926953 11.7441L2.12536 20.7C2.43049 22.0518 3.48203 23 4.67909 23H18.3162C19.5133 23 20.5648 22.0565 20.87 20.7L22.9073 11.7441C23.1467 10.688 22.9167 9.58959 22.283 8.80102ZM11.5 1.9151C14.2978 1.9151 16.5887 4.53429 16.7389 7.82469H6.26109C6.41131 4.53898 8.70216 1.9151 11.5 1.9151ZM21.0389 11.3169L19.0063 20.2776C18.903 20.7376 18.6073 21.0849 18.3209 21.0849H4.67909C4.39273 21.0849 4.09699 20.7376 3.99371 20.2776L1.96105 11.3169C1.85308 10.8429 1.78736 9.7398 2.64643 9.7398H20.3536C21.2784 9.7398 21.1469 10.8429 21.0389 11.3169Z" fill="#464646"/>
<path d="M6.74461 11.6455C6.21415 11.6455 5.78696 12.0727 5.78696 12.6031V18.5878C5.78696 19.1182 6.21415 19.5453 6.74461 19.5453C7.27507 19.5453 7.70226 19.1182 7.70226 18.5878V12.6031C7.70695 12.0773 7.27507 11.6455 6.74461 11.6455Z" fill="#464646"/>
<path d="M11.3873 11.6455C10.8569 11.6455 10.4297 12.0727 10.4297 12.6031V18.5878C10.4297 19.1182 10.8569 19.5453 11.3873 19.5453C11.9178 19.5453 12.345 19.1182 12.345 18.5878V12.6031C12.345 12.0773 11.9131 11.6455 11.3873 11.6455Z" fill="#464646"/>
<path d="M16.0254 11.6455C15.4949 11.6455 15.0677 12.0727 15.0677 12.6031V18.5878C15.0677 19.1182 15.4949 19.5453 16.0254 19.5453C16.5558 19.5453 16.983 19.1182 16.983 18.5878V12.6031C16.983 12.0773 16.5558 11.6455 16.0254 11.6455Z" fill="#464646"/>
</g>
</svg>
