<svg width="35" height="35" viewBox="0 0 35 35" fill="none" xmlns="http://www.w3.org/2000/svg">
<g id="WhatsApp">
<path id="Oval" d="M17.5 35C27.165 35 35 27.165 35 17.5C35 7.83502 27.165 0 17.5 0C7.83502 0 0 7.83502 0 17.5C0 27.165 7.83502 35 17.5 35Z" fill="#25D366"/>
<path id="Page-1" fill-rule="evenodd" clip-rule="evenodd" d="M18.0765 27.2356H18.0722C16.3306 27.235 14.6193 26.798 13.0994 25.9689L7.58301 27.416L9.05929 22.0237C8.14865 20.4456 7.66947 18.6554 7.67025 16.8214C7.67254 11.0839 12.3407 6.41602 18.0764 6.41602C20.8602 6.41722 23.4729 7.50092 25.4376 9.46788C27.4022 11.4347 28.4836 14.0492 28.4825 16.8296C28.4802 22.5658 23.8139 27.2332 18.0765 27.2356ZM13.3546 24.0853L13.6704 24.2727C14.9983 25.0608 16.5206 25.4777 18.0726 25.4783H18.0761C22.8432 25.4783 26.7232 21.5983 26.7251 16.8292C26.726 14.5181 25.8272 12.3451 24.1943 10.7103C22.5613 9.07541 20.3897 8.17463 18.0795 8.17383C13.3087 8.17383 9.42865 12.0535 9.42676 16.8222C9.42609 18.4565 9.88336 20.0481 10.7492 21.4251L10.9548 21.7523L10.081 24.944L13.3546 24.0853ZM22.9631 19.0698C23.1445 19.1575 23.2669 19.2166 23.3192 19.3039C23.3842 19.4123 23.3842 19.9329 23.1676 20.5404C22.9509 21.1477 21.9121 21.702 21.4125 21.7767C20.9646 21.8436 20.3977 21.8716 19.7748 21.6736C19.3972 21.5538 18.9129 21.3938 18.2925 21.1259C15.855 20.0734 14.2077 17.7109 13.8963 17.2644C13.8745 17.2331 13.8593 17.2112 13.8508 17.1998L13.8487 17.1971C13.7111 17.0135 12.7891 15.7833 12.7891 14.5101C12.7891 13.3124 13.3774 12.6847 13.6482 12.3957C13.6667 12.3759 13.6838 12.3577 13.6991 12.341C13.9374 12.0807 14.2191 12.0156 14.3925 12.0156C14.5658 12.0156 14.7393 12.0172 14.8908 12.0248C14.9095 12.0258 14.9289 12.0257 14.949 12.0255C15.1006 12.0247 15.2895 12.0235 15.4758 12.4712C15.5475 12.6434 15.6524 12.8988 15.763 13.1682C15.9868 13.7129 16.234 14.3147 16.2775 14.4018C16.3425 14.5319 16.3858 14.6837 16.2992 14.8573C16.2861 14.8834 16.2741 14.9079 16.2626 14.9314C16.1975 15.0643 16.1496 15.1621 16.0391 15.2911C15.9957 15.3418 15.9508 15.3965 15.9059 15.4511C15.8164 15.5601 15.727 15.669 15.6491 15.7466C15.519 15.8763 15.3834 16.0169 15.5351 16.2772C15.6868 16.5376 16.2086 17.389 16.9816 18.0785C17.8125 18.8196 18.5347 19.1328 18.9007 19.2916C18.9722 19.3226 19.0301 19.3477 19.0726 19.369C19.3325 19.4992 19.4842 19.4774 19.6359 19.3039C19.7875 19.1304 20.2858 18.5447 20.4592 18.2844C20.6325 18.0242 20.8059 18.0675 21.0442 18.1543C21.2825 18.2411 22.5609 18.8701 22.8209 19.0002C22.8717 19.0256 22.9191 19.0485 22.9631 19.0698Z" fill="#FDFDFD"/>
</g>
</svg>
